<svg version="1.0" preserveAspectRatio="xMidYMid meet" viewBox="119.88 233.27999798399998 568.62 298.079997424" zoomAndPan="magnify" xmlns:xlink="http://www.w3.org/1999/xlink" xmlns="http://www.w3.org/2000/svg" style="max-height: 500px" width="568.62" height="298.079997424"><defs><g/><clipPath id="4a4d43eeca"><path clip-rule="nonzero" d="M 330.894531 242 L 479.394531 242 L 479.394531 390.441406 L 330.894531 390.441406 Z M 330.894531 242"/></clipPath></defs><g fill-opacity="1" fill="#e6ecf0"><g transform="translate(121.264726, 515.016264)"><g><path d="M 42.0625 0 L 26.09375 0 L 0.734375 -75.328125 L 19.78125 -75.328125 L 34.515625 -27.546875 L 35.828125 -23.078125 L 36.046875 -23.078125 L 37.453125 -27.546875 L 51.734375 -75.328125 L 64.859375 -75.328125 L 78.625 -28.0625 L 80.171875 -23.078125 L 80.390625 -23.078125 L 82.140625 -28.359375 L 96.875 -75.328125 L 115.5625 -75.328125 L 90.140625 0 L 73.71875 0 L 58.03125 -48.8125 L 57.96875 -48.8125 Z M 42.0625 0"/></g></g></g><g fill-opacity="1" fill="#e6ecf0"><g transform="translate(234.188884, 515.016264)"><g><path d="M 40.53125 2.265625 C 35.445312 2.265625 30.742188 1.238281 26.421875 -0.8125 C 22.097656 -2.863281 18.332031 -5.71875 15.125 -9.375 C 11.925781 -13.039062 9.445312 -17.289062 7.6875 -22.125 C 5.9375 -26.96875 5.0625 -32.148438 5.0625 -37.671875 C 5.0625 -43.191406 5.953125 -48.359375 7.734375 -53.171875 C 9.515625 -57.984375 12.003906 -62.21875 15.203125 -65.875 C 18.398438 -69.539062 22.148438 -72.410156 26.453125 -74.484375 C 30.753906 -76.566406 35.421875 -77.609375 40.453125 -77.609375 C 46.609375 -77.609375 52.078125 -76.273438 56.859375 -73.609375 C 61.648438 -70.941406 65.242188 -67.265625 67.640625 -62.578125 L 67.640625 -75.328125 L 84.5 -75.328125 L 84.5 0 L 67.640625 0 L 67.640625 -12.671875 C 65.191406 -7.984375 61.585938 -4.320312 56.828125 -1.6875 C 52.066406 0.945312 46.632812 2.265625 40.53125 2.265625 Z M 44.78125 -14.140625 C 47.851562 -14.140625 50.734375 -14.738281 53.421875 -15.9375 C 56.109375 -17.132812 58.460938 -18.796875 60.484375 -20.921875 C 62.515625 -23.046875 64.09375 -25.535156 65.21875 -28.390625 C 66.34375 -31.253906 66.90625 -34.347656 66.90625 -37.671875 C 66.90625 -40.941406 66.328125 -44.003906 65.171875 -46.859375 C 64.023438 -49.722656 62.453125 -52.226562 60.453125 -54.375 C 58.453125 -56.519531 56.109375 -58.191406 53.421875 -59.390625 C 50.734375 -60.585938 47.851562 -61.1875 44.78125 -61.1875 C 40.71875 -61.1875 37.015625 -60.207031 33.671875 -58.25 C 30.328125 -56.300781 27.648438 -53.566406 25.640625 -50.046875 C 23.640625 -46.535156 22.640625 -42.410156 22.640625 -37.671875 C 22.640625 -32.785156 23.648438 -28.582031 25.671875 -25.0625 C 27.703125 -21.539062 30.40625 -18.835938 33.78125 -16.953125 C 37.15625 -15.078125 40.820312 -14.140625 44.78125 -14.140625 Z M 44.78125 -14.140625"/></g></g></g><g fill-opacity="1" fill="#e6ecf0"><g transform="translate(325.787856, 515.016264)"><g><path d="M 47.265625 0 L 30.78125 0 L 0.734375 -75.328125 L 19.5625 -75.328125 L 37.078125 -29.828125 L 39.0625 -21.90625 L 40.96875 -29.75 L 58.484375 -75.328125 L 77.453125 -75.328125 Z M 47.265625 0"/></g></g></g><g fill-opacity="1" fill="#e6ecf0"><g transform="translate(400.605104, 515.016264)"><g><path d="M 82.078125 -38.984375 C 82.078125 -38.054688 82.050781 -37.175781 82 -36.34375 C 81.945312 -35.507812 81.847656 -34.382812 81.703125 -32.96875 L 22.859375 -32.96875 C 23.492188 -28.875 24.800781 -25.382812 26.78125 -22.5 C 28.757812 -19.613281 31.210938 -17.398438 34.140625 -15.859375 C 37.078125 -14.328125 40.28125 -13.5625 43.75 -13.5625 C 48.238281 -13.5625 51.875 -14.453125 54.65625 -16.234375 C 57.445312 -18.015625 59.476562 -20.492188 60.75 -23.671875 L 80.09375 -23.671875 C 79.164062 -20.296875 77.640625 -17.046875 75.515625 -13.921875 C 73.390625 -10.796875 70.785156 -8.023438 67.703125 -5.609375 C 64.628906 -3.191406 61.101562 -1.273438 57.125 0.140625 C 53.144531 1.554688 48.804688 2.265625 44.109375 2.265625 C 38.441406 2.265625 33.226562 1.226562 28.46875 -0.84375 C 23.707031 -2.914062 19.578125 -5.785156 16.078125 -9.453125 C 12.585938 -13.117188 9.878906 -17.367188 7.953125 -22.203125 C 6.023438 -27.035156 5.0625 -32.191406 5.0625 -37.671875 C 5.0625 -43.191406 6.023438 -48.359375 7.953125 -53.171875 C 9.878906 -57.984375 12.585938 -62.21875 16.078125 -65.875 C 19.578125 -69.539062 23.707031 -72.410156 28.46875 -74.484375 C 33.226562 -76.566406 38.441406 -77.609375 44.109375 -77.609375 C 49.773438 -77.609375 54.941406 -76.582031 59.609375 -74.53125 C 64.273438 -72.476562 68.28125 -69.65625 71.625 -66.0625 C 74.976562 -62.46875 77.554688 -58.347656 79.359375 -53.703125 C 81.171875 -49.066406 82.078125 -44.160156 82.078125 -38.984375 Z M 23.59375 -46.671875 L 63.96875 -46.671875 C 63.726562 -49.515625 62.675781 -52.09375 60.8125 -54.40625 C 58.957031 -56.726562 56.566406 -58.597656 53.640625 -60.015625 C 50.710938 -61.429688 47.515625 -62.140625 44.046875 -62.140625 C 41.066406 -62.140625 38.207031 -61.585938 35.46875 -60.484375 C 32.726562 -59.390625 30.320312 -57.707031 28.25 -55.4375 C 26.175781 -53.164062 24.625 -50.242188 23.59375 -46.671875 Z M 23.59375 -46.671875"/></g></g></g><g fill-opacity="1" fill="#e6ecf0"><g transform="translate(483.410173, 515.016264)"><g><path d="M 19.125 -87.0625 C 15.707031 -87.0625 13.03125 -88.050781 11.09375 -90.03125 C 9.164062 -92.007812 8.203125 -94.414062 8.203125 -97.25 C 8.203125 -99.976562 9.164062 -102.34375 11.09375 -104.34375 C 13.03125 -106.351562 15.734375 -107.359375 19.203125 -107.359375 C 22.765625 -107.359375 25.507812 -106.351562 27.4375 -104.34375 C 29.375 -102.34375 30.34375 -99.976562 30.34375 -97.25 C 30.34375 -94.414062 29.375 -92.007812 27.4375 -90.03125 C 25.507812 -88.050781 22.738281 -87.0625 19.125 -87.0625 Z M 28.140625 0 L 10.40625 0 L 10.40625 -75.328125 L 28.140625 -75.328125 Z M 28.140625 0"/></g></g></g><g fill-opacity="1" fill="#e6ecf0"><g transform="translate(518.581603, 515.016264)"><g><path d="M 28.140625 0 L 10.40625 0 L 10.40625 -75.328125 L 27.265625 -75.328125 L 27.265625 -63.609375 C 28.722656 -66.347656 30.722656 -68.765625 33.265625 -70.859375 C 35.804688 -72.960938 38.757812 -74.613281 42.125 -75.8125 C 45.5 -77.007812 49.117188 -77.609375 52.984375 -77.609375 C 63.097656 -77.609375 70.671875 -74.394531 75.703125 -67.96875 C 80.734375 -61.539062 83.25 -52.414062 83.25 -40.59375 L 83.25 0 L 65.515625 0 L 65.515625 -40.234375 C 65.515625 -47.703125 63.945312 -53.070312 60.8125 -56.34375 C 57.6875 -59.625 53.441406 -61.265625 48.078125 -61.265625 C 44.609375 -61.265625 41.359375 -60.382812 38.328125 -58.625 C 35.296875 -56.863281 32.835938 -54.296875 30.953125 -50.921875 C 29.078125 -47.554688 28.140625 -43.40625 28.140625 -38.46875 Z M 28.140625 0"/></g></g></g><g fill-opacity="1" fill="#e6ecf0"><g transform="translate(608.348484, 515.016264)"><g><path d="M 79.515625 0 L 59.578125 0 L 40.015625 -33.921875 L 28.140625 -20.953125 L 28.140625 0 L 10.40625 0 L 10.40625 -103.171875 L 28.140625 -103.171875 L 28.140625 -40.015625 L 54.671875 -75.328125 L 76.28125 -75.328125 L 52.90625 -45.5 Z M 79.515625 0"/></g></g></g><g clip-path="url(#4a4d43eeca)"><path fill-rule="nonzero" fill-opacity="1" d="M 404.988281 350.511719 C 401.621094 359.332031 396.65625 372.65625 390.0625 390.433594 C 376.925781 357.566406 357.195312 308.101562 330.894531 242.019531 C 337.464844 242.019531 347.328125 242.019531 360.492188 242.019531 C 370.261719 266.066406 385.09375 302.230469 404.988281 350.511719 Z M 464.640625 350.511719 C 461.277344 359.332031 456.308594 372.65625 449.714844 390.433594 C 436.578125 357.566406 416.847656 308.101562 390.550781 242.019531 C 397.117188 242.019531 406.984375 242.019531 420.144531 242.019531 C 430.078125 266.066406 444.933594 302.230469 464.640625 350.511719 Z M 449.019531 256.945312 C 449.019531 252.929688 450.550781 249.492188 453.59375 246.59375 C 456.472656 243.550781 460 242.019531 464.175781 242.019531 C 468.191406 242.019531 471.628906 243.550781 474.53125 246.59375 C 477.570312 249.46875 479.101562 252.929688 479.101562 256.945312 C 479.101562 261.121094 477.570312 264.652344 474.53125 267.527344 C 471.652344 270.40625 468.191406 271.847656 464.175781 271.847656 C 460 271.847656 456.472656 270.476562 453.59375 267.761719 C 450.527344 264.882812 449.019531 261.261719 449.019531 256.945312 Z M 449.019531 256.945312" fill="#00e5ff"/></g></svg>